<!-- Generated by IcoMoon.io -->
<svg version="1.1" xmlns="http://www.w3.org/2000/svg" width="1024" height="1024" viewBox="0 0 1024 1024">
<title></title>
<g id="icomoon-ignore">
</g>
<path fill="none" stroke="#000" stroke-width="36.1199" stroke-miterlimit="10" stroke-linecap="round" stroke-linejoin="round" d="M948.148 453.305h-317.855c-21.672 0-37.926-16.254-37.926-37.926v-316.049c0-21.672 16.254-37.926 37.926-37.926h316.049c21.672 0 37.926 16.254 37.926 37.926v316.049c1.806 21.672-16.254 37.926-36.12 37.926z"></path>
<path fill="none" stroke="#000" stroke-width="36.1199" stroke-miterlimit="10" stroke-linecap="round" stroke-linejoin="round" d="M402.737 973.432h-316.049c-21.672 0-37.926-16.254-37.926-37.926v-317.855c0-21.672 16.254-37.926 37.926-37.926h316.049c21.672 0 37.926 16.254 37.926 37.926v316.049c0 21.672-18.060 39.732-37.926 39.732z"></path>
<path fill="none" stroke="#000" stroke-width="36.1199" stroke-miterlimit="10" stroke-linecap="round" stroke-linejoin="round" d="M948.148 973.432h-317.855c-21.672 0-37.926-16.254-37.926-37.926v-317.855c0-21.672 16.254-37.926 37.926-37.926h316.049c21.672 0 37.926 16.254 37.926 37.926v316.049c1.806 21.672-16.254 39.732-36.12 39.732z"></path>
<path fill="none" stroke="#000" stroke-width="36.1199" stroke-miterlimit="10" stroke-linecap="butt" stroke-linejoin="miter" d="M451.499 225.75l-21.672-5.418c-3.612-16.254-10.836-30.702-18.060-45.15l10.836-18.060c3.612-7.224 5.418-14.448 0-19.866l-41.538-41.538c-1.806-1.806-5.418-3.612-9.030-3.612s-7.224 1.806-10.836 3.612l-18.060 10.836c-14.448-7.224-28.896-14.448-45.15-18.060l-5.418-21.672c-1.806-7.224-7.224-14.448-14.448-14.448h-57.792c-7.224 0-12.642 7.224-14.448 14.448l-5.418 21.672c-16.254 3.612-30.702 10.836-45.15 18.060l-18.060-10.836c-3.612-1.806-7.224-3.612-12.642-3.612-3.612 0-7.224 1.806-9.030 3.612l-39.732 39.732c-5.418 5.418-3.612 14.448 0 21.672l10.836 18.060c-9.030 14.448-14.448 28.896-18.060 45.15l-21.672 5.418c-7.224 1.806-14.448 7.224-14.448 14.448v57.792c0 7.224 7.224 12.642 14.448 14.448l21.672 5.418c3.612 16.254 10.836 30.702 18.060 45.15l-10.836 18.060c-3.612 5.418-5.418 14.448 0 19.866l41.538 41.538c1.806 1.806 5.418 3.612 9.030 3.612s9.030-1.806 12.642-3.612l18.060-10.836c14.448 7.224 28.896 14.448 45.15 18.060l5.418 21.672c1.806 7.224 7.224 14.448 14.448 14.448h57.792c7.224 0 12.642-7.224 14.448-14.448l5.418-21.672c16.254-3.612 30.702-10.836 45.15-18.060l18.060 10.836c3.612 1.806 7.224 3.612 12.642 3.612 3.612 0 5.418-1.806 9.030-3.612l41.538-41.538c5.418-5.418 3.612-14.448 0-19.866l-10.836-18.060c9.030-14.448 14.448-28.896 18.060-45.15l21.672-5.418c7.224-1.806 14.448-7.224 14.448-14.448v-57.792c-1.806-7.224-10.836-12.642-18.060-14.448z"></path>
</svg>
