<!-- Generated by IcoMoon.io -->
<svg version="1.1" xmlns="http://www.w3.org/2000/svg" width="1024" height="1024" viewBox="0 0 1024 1024">
<title></title>
<g id="icomoon-ignore">
</g>
<path fill="none" stroke="#000" stroke-width="36.1199" stroke-miterlimit="10" stroke-linecap="round" stroke-linejoin="round" d="M579.725 240.198h-133.644c-21.672 0-37.926-16.254-37.926-37.926v-133.644c0-21.672 16.254-37.926 37.926-37.926h133.644c21.672 0 37.926 16.254 37.926 37.926v133.644c0 19.866-18.060 37.926-37.926 37.926z"></path>
<path fill="none" stroke="#000" stroke-width="36.1199" stroke-miterlimit="10" stroke-linecap="round" stroke-linejoin="round" d="M579.725 993.298h-133.644c-21.672 0-37.926-16.254-37.926-37.926v-133.644c0-21.672 16.254-37.926 37.926-37.926h133.644c21.672 0 37.926 16.254 37.926 37.926v133.644c0 19.866-18.060 37.926-37.926 37.926z"></path>
<path fill="none" stroke="#000" stroke-width="36.1199" stroke-miterlimit="10" stroke-linecap="round" stroke-linejoin="round" d="M783.802 577.919v-133.644c0-21.672 16.254-37.926 37.926-37.926h133.644c21.672 0 37.926 16.254 37.926 37.926v133.644c0 21.672-16.254 37.926-37.926 37.926h-133.644c-19.866 0-37.926-16.254-37.926-37.926z"></path>
<path fill="none" stroke="#000" stroke-width="36.1199" stroke-miterlimit="10" stroke-linecap="round" stroke-linejoin="round" d="M30.702 577.919v-133.644c0-21.672 16.254-37.926 37.926-37.926h133.644c21.672 0 37.926 16.254 37.926 37.926v133.644c0 21.672-16.254 37.926-37.926 37.926h-133.644c-19.866 0-37.926-16.254-37.926-37.926z"></path>
<path fill="none" stroke="#000" stroke-width="36.1199" stroke-miterlimit="10" stroke-linecap="round" stroke-linejoin="round" d="M332.303 162.54c-66.822 34.314-122.808 88.494-160.734 153.51"></path>
<path fill="none" stroke="#000" stroke-width="36.1199" stroke-miterlimit="10" stroke-linecap="round" stroke-linejoin="round" d="M852.43 317.855c-37.926-66.822-93.912-119.196-160.734-155.316"></path>
<path fill="none" stroke="#000" stroke-width="36.1199" stroke-miterlimit="10" stroke-linecap="round" stroke-linejoin="round" d="M691.697 861.46c77.658-39.732 139.062-104.748 176.988-184.212"></path>
<path fill="none" stroke="#000" stroke-width="36.1199" stroke-miterlimit="10" stroke-linecap="round" stroke-linejoin="round" d="M155.316 677.249c36.12 79.464 99.33 144.48 176.988 184.212"></path>
</svg>
