<!-- Generated by IcoMoon.io -->
<svg version="1.1" xmlns="http://www.w3.org/2000/svg" width="1024" height="1024" viewBox="0 0 1024 1024">
<title></title>
<g id="icomoon-ignore">
</g>
<path fill="none" stroke="#000" stroke-width="36.1199" stroke-miterlimit="10" stroke-linecap="round" stroke-linejoin="miter" d="M512.903 242.004c0 0 245.616-10.836 223.944 245.616 0 0 92.106 25.284-16.254 137.256 0 0-28.896 104.748-65.016 142.674-34.314 37.926-97.524 81.27-137.256 92.106"></path>
<path fill="none" stroke="#000" stroke-width="36.1199" stroke-miterlimit="10" stroke-linecap="round" stroke-linejoin="miter" d="M511.097 242.004c0 0-245.616-10.836-223.944 245.616 0 0-92.106 25.284 16.254 137.256 0 0 28.896 104.748 65.016 142.674 34.314 37.926 97.524 81.27 137.256 92.106"></path>
<path fill="none" stroke="#000" stroke-width="36.1199" stroke-miterlimit="10" stroke-linecap="round" stroke-linejoin="miter" d="M25.284 366.617h135.45"></path>
<path fill="none" stroke="#000" stroke-width="36.1199" stroke-miterlimit="10" stroke-linecap="round" stroke-linejoin="miter" d="M863.266 366.617h135.45"></path>
<path fill="none" stroke="#000" stroke-width="36.1199" stroke-miterlimit="10" stroke-linecap="round" stroke-linejoin="round" d="M989.686 530.963c0 144.48-63.21 272.705-164.346 361.199-37.926 32.508-81.27 59.598-128.226 79.464"></path>
<path fill="none" stroke="#000" stroke-width="36.1199" stroke-miterlimit="10" stroke-linecap="round" stroke-linejoin="round" d="M155.316 211.302c86.688-97.524 214.914-158.928 355.781-158.928 142.674 0 270.899 63.21 359.393 162.54"></path>
<path fill="none" stroke="#000" stroke-width="36.1199" stroke-miterlimit="10" stroke-linecap="round" stroke-linejoin="round" d="M314.243 966.208c-54.18-25.284-102.942-59.598-144.48-101.136-84.882-86.688-137.256-204.078-137.256-335.915"></path>
</svg>
