<!-- Generated by IcoMoon.io -->
<svg version="1.1" xmlns="http://www.w3.org/2000/svg" width="1024" height="1024" viewBox="0 0 1024 1024">
<title></title>
<g id="icomoon-ignore">
</g>
<path fill="none" stroke="#000" stroke-width="36.1199" stroke-miterlimit="10" stroke-linecap="round" stroke-linejoin="round" d="M358.423 365.382c50.744 20.846 74.981 78.881 54.135 129.625s-78.881 74.981-129.625 54.135c-50.744-20.846-74.981-78.881-54.135-129.625s78.881-74.981 129.625-54.135z"></path>
<path fill="none" stroke="#000" stroke-width="36.1199" stroke-miterlimit="10" stroke-linecap="round" stroke-linejoin="round" d="M27.090 518.321c70.434 28.896 157.122-16.254 191.436-101.136s5.418-178.794-65.016-207.69"></path>
<path fill="none" stroke="#000" stroke-width="36.1199" stroke-miterlimit="10" stroke-linecap="round" stroke-linejoin="round" d="M605.009 733.235c0 54.858-44.471 99.33-99.33 99.33s-99.33-44.471-99.33-99.33c0-54.858 44.471-99.33 99.33-99.33s99.33 44.471 99.33 99.33z"></path>
<path fill="none" stroke="#000" stroke-width="36.1199" stroke-miterlimit="10" stroke-linecap="round" stroke-linejoin="round" d="M689.891 982.462c0-75.852-92.106-139.062-184.212-139.062s-184.212 61.404-184.212 139.062"></path>
<path fill="none" stroke="#000" stroke-width="36.1199" stroke-miterlimit="10" stroke-linecap="round" stroke-linejoin="round" d="M792.819 423.428c17.659 51.94-10.131 108.361-62.071 126.020s-108.361-10.131-126.020-62.071c-17.659-51.94 10.131-108.361 62.071-126.020s108.361 10.131 126.020 62.071z"></path>
<path fill="none" stroke="#000" stroke-width="36.1199" stroke-miterlimit="10" stroke-linecap="round" stroke-linejoin="round" d="M881.326 216.72c-72.24 25.284-106.554 115.584-77.658 202.272s111.972 137.256 184.212 113.778"></path>
<path fill="none" stroke="#000" stroke-width="36.1199" stroke-miterlimit="10" stroke-linecap="round" stroke-linejoin="round" d="M1002.328 530.963c0 148.092-65.016 279.929-169.764 370.229-39.732 34.314-83.076 61.404-131.838 83.076"></path>
<path fill="none" stroke="#000" stroke-width="36.1199" stroke-miterlimit="10" stroke-linecap="round" stroke-linejoin="round" d="M146.286 202.272c90.3-99.33 220.332-162.54 364.811-162.54 146.286 0 278.123 65.016 368.423 166.152"></path>
<path fill="none" stroke="#000" stroke-width="36.1199" stroke-miterlimit="10" stroke-linecap="round" stroke-linejoin="round" d="M308.825 978.85c-55.986-25.284-104.748-59.598-148.092-102.942-86.688-88.494-140.868-209.496-140.868-344.945"></path>
</svg>
