<!-- Generated by IcoMoon.io -->
<svg version="1.1" xmlns="http://www.w3.org/2000/svg" width="1024" height="1024" viewBox="0 0 1024 1024">
<title></title>
<g id="icomoon-ignore">
</g>
<path fill="none" stroke="#000" stroke-width="36.1199" stroke-miterlimit="10" stroke-linecap="round" stroke-linejoin="round" d="M361.199 28.896h-236.586c-55.986 0-99.33 45.15-99.33 99.33v211.302"></path>
<path fill="none" stroke="#000" stroke-width="36.1199" stroke-miterlimit="10" stroke-linecap="round" stroke-linejoin="round" d="M1000.522 339.527v-211.302c0-55.986-45.15-99.33-99.33-99.33h-196.854"></path>
<path fill="none" stroke="#000" stroke-width="36.1199" stroke-miterlimit="10" stroke-linecap="round" stroke-linejoin="round" d="M23.478 684.473v211.302c0 55.986 45.15 99.33 99.33 99.33h238.392"></path>
<path fill="none" stroke="#000" stroke-width="36.1199" stroke-miterlimit="10" stroke-linecap="round" stroke-linejoin="round" d="M704.339 995.104h195.048c55.986 0 99.33-45.15 99.33-99.33v-211.302"></path>
<path fill="none" stroke="#000" stroke-width="36.1199" stroke-miterlimit="10" stroke-linecap="round" stroke-linejoin="miter" d="M754.907 511.097c0 140.868-113.778 254.646-254.646 254.646s-254.646-113.778-254.646-254.646 113.778-254.646 254.646-254.646c52.374 0 101.136 16.254 142.674 43.344"></path>
<path fill="none" stroke="#000" stroke-width="36.1199" stroke-miterlimit="10" stroke-linecap="round" stroke-linejoin="round" d="M429.827 464.141l122.808 121.002 225.75-216.72"></path>
</svg>
