<!-- Generated by IcoMoon.io -->
<svg version="1.1" xmlns="http://www.w3.org/2000/svg" width="1024" height="1024" viewBox="0 0 1024 1024">
<title></title>
<g id="icomoon-ignore">
</g>
<path fill="none" stroke="#000" stroke-width="36.1199" stroke-miterlimit="10" stroke-linecap="butt" stroke-linejoin="miter" d="M514.709 996.91c-1.806 0-1.806 0-3.612 0s-1.806 0-3.612 0c-9.030 0-18.060-1.806-23.478-7.224-18.060-12.642-111.972-72.24-184.212-113.778-218.526-124.614-227.556-292.571-227.556-299.795v-355.781c0-10.836 5.418-21.672 14.448-28.896 7.224-5.418 18.060-9.030 27.090-9.030 0 0 3.612 0 5.418 0 7.224 0 14.448 1.806 21.672 1.806 144.48 0 339.527-144.48 341.333-146.286 9.030-5.418 19.866-9.030 28.896-9.030 10.836-1.806 21.672 0 30.702 7.224 9.030 5.418 198.66 146.286 341.333 146.286 7.224 0 14.448 0 21.672-1.806 1.806 0 3.612 0 5.418 0 10.836 0 19.866 3.612 27.090 9.030 9.030 7.224 14.448 18.060 14.448 28.896v355.781c0 7.224-9.030 176.988-227.556 301.601-79.464 45.15-184.212 113.778-184.212 113.778-7.224 3.612-16.254 7.224-25.284 7.224z"></path>
<path fill="none" stroke="#000" stroke-width="36.1199" stroke-miterlimit="10" stroke-linecap="round" stroke-linejoin="round" d="M594.173 464.141c-1.806-1.806-3.612-5.418-3.612-9.030s1.806-7.224 3.612-9.030l19.866-19.866c9.030-9.030 9.030-25.284 0-36.12l-160.734-160.734c-9.030-9.030-25.284-9.030-36.12 0l-142.674 142.674c-9.030 9.030-9.030 25.284 0 36.12l160.734 160.734c9.030 9.030 25.284 9.030 36.12 0l19.866-19.866c1.806-1.806 5.418-3.612 9.030-3.612s7.224 1.806 9.030 3.612l79.464 79.464h45.15c7.224 0 12.642 5.418 12.642 12.642v37.926h39.732c7.224 0 12.642 5.418 12.642 12.642v37.926h75.852v-83.076l-180.6-182.406zM420.797 424.409c-27.090 0-50.568-23.478-50.568-50.568s23.478-50.568 50.568-50.568c27.090 0 50.568 23.478 50.568 50.568s-21.672 50.568-50.568 50.568z"></path>
<path fill="none" stroke="#000" stroke-width="36.1199" stroke-miterlimit="10" stroke-linecap="round" stroke-linejoin="miter" d="M196.854 579.725c0 0 88.494 167.958 231.168 234.78"></path>
</svg>
