<!-- Generated by IcoMoon.io -->
<svg version="1.1" xmlns="http://www.w3.org/2000/svg" width="1024" height="1024" viewBox="0 0 1024 1024">
<title></title>
<g id="icomoon-ignore">
</g>
<path fill="none" stroke="#000" stroke-width="36.1199" stroke-miterlimit="10" stroke-linecap="round" stroke-linejoin="round" d="M238.392 827.146h-115.584c-57.792 0-104.748-46.956-104.748-104.748v-583.337c0-57.792 46.956-104.748 104.748-104.748h774.772c57.792 0 104.748 46.956 104.748 104.748v583.337c0 57.792-46.956 104.748-104.748 104.748h-395.513c-3.612 0-9.030 1.806-10.836 5.418l-121.002 160.734-121.002-160.734c-1.806-3.612-5.418-5.418-10.836-5.418"></path>
<path fill="none" stroke="#000" stroke-width="36.1199" stroke-miterlimit="10" stroke-linecap="round" stroke-linejoin="round" d="M872.296 597.785c0 0 0 0 0 0v-70.434l-37.926-9.030c-12.642-3.612-23.478-12.642-25.284-25.284-7.224-25.284-18.060-50.568-30.702-74.046-7.224-10.836-7.224-25.284 0-36.12l19.866-32.508c0 0 0 0 0 0l-63.21-63.21-32.508 19.866c-5.418 3.612-12.642 5.418-18.060 5.418s-12.642-1.806-18.060-5.418c-23.478-12.642-48.762-23.478-74.046-30.702-12.642-3.612-21.672-12.642-25.284-25.284l-9.030-37.926c0 0 0 0 0 0h-88.494l-9.030 37.926c-3.612 12.642-12.642 23.478-25.284 25.284-25.284 7.224-50.568 18.060-74.046 30.702-5.418 3.612-12.642 5.418-18.060 5.418-7.224 0-12.642-1.806-18.060-5.418l-36.12-23.478-63.21 63.21c0 0 0 0 0 0l19.866 32.508c7.224 10.836 7.224 25.284 0 36.12-14.448 23.478-23.478 48.762-30.702 74.046-3.612 12.642-12.642 21.672-25.284 25.284l-37.926 9.030v70.434c0 0 0 0 0 0h720.593zM330.497 570.695c0-99.33 81.27-180.6 180.6-180.6s180.6 81.27 180.6 180.6"></path>
</svg>
