<!-- Generated by IcoMoon.io -->
<svg version="1.1" xmlns="http://www.w3.org/2000/svg" width="1024" height="1024" viewBox="0 0 1024 1024">
<title></title>
<g id="icomoon-ignore">
</g>
<path fill="none" stroke="#000" stroke-width="36.1199" stroke-miterlimit="10" stroke-linecap="round" stroke-linejoin="round" d="M238.392 827.146h-115.584c-57.792 0-104.748-46.956-104.748-104.748v-583.337c0-57.792 46.956-104.748 104.748-104.748h774.772c57.792 0 104.748 46.956 104.748 104.748v583.337c0 57.792-46.956 104.748-104.748 104.748h-395.513c-3.612 0-9.030 1.806-10.836 5.418l-121.002 160.734-121.002-160.734c-1.806-3.612-5.418-5.418-10.836-5.418"></path>
<path fill="#000" d="M828.952 550.829c0-7.224-5.418-14.448-14.448-14.448h-579.725c-7.224 0-14.448 5.418-14.448 14.448s5.418 14.448 14.448 14.448h579.725c7.224 0 14.448-7.224 14.448-14.448z"></path>
<path fill="#000" d="M234.78 332.303h449.693c7.224 0 14.448-5.418 14.448-14.448s-5.418-14.448-14.448-14.448h-449.693c-7.224 0-14.448 5.418-14.448 14.448s7.224 14.448 14.448 14.448z"></path>
</svg>
