<!-- Generated by IcoMoon.io -->
<svg version="1.1" xmlns="http://www.w3.org/2000/svg" width="1024" height="1024" viewBox="0 0 1024 1024">
<title></title>
<g id="icomoon-ignore">
</g>
<path fill="none" stroke="#000" stroke-width="36.1199" stroke-miterlimit="10" stroke-linecap="round" stroke-linejoin="round" d="M171.57 653.771l236.586-225.75c0 0-57.792-148.092 74.046-251.034 102.942-81.27 204.078-39.732 204.078-39.732l-142.674 146.286 131.838 142.674 171.57-157.122c0 0 32.508 182.406-86.688 258.257s-220.332 39.732-220.332 39.732l-79.464 83.076"></path>
<path fill="none" stroke="#000" stroke-width="36.1199" stroke-miterlimit="10" stroke-linecap="round" stroke-linejoin="round" d="M242.004 830.758l-115.584 1.806c-57.792 0-104.748-45.15-106.554-102.942v-588.755c0-57.792 45.15-104.748 102.942-106.554l772.966 1.806c57.792 0 104.748 45.15 106.554 102.942l1.806 373.841 1.806 204.078c0 57.792-45.15 104.748-102.942 106.554l-317.855 3.612h-79.464c-3.612 0-9.030 1.806-10.836 5.418l-117.39 162.54-122.808-158.928c-3.612-3.612-7.224-5.418-12.642-5.418"></path>
<path fill="#000" d="M874.102 653.771c0-7.224-7.224-14.448-14.448-14.448l-693.503 1.806c-7.224 0-14.448 7.224-14.448 14.448s7.224 14.448 14.448 14.448l695.309-1.806c7.224 0 12.642-5.418 12.642-14.448z"></path>
</svg>
