<!-- Generated by IcoMoon.io -->
<svg version="1.1" xmlns="http://www.w3.org/2000/svg" width="1024" height="1024" viewBox="0 0 1024 1024">
<title></title>
<g id="icomoon-ignore">
</g>
<path fill="none" stroke="#000" stroke-width="36.1199" stroke-miterlimit="10" stroke-linecap="round" stroke-linejoin="round" d="M290.765 415.379l88.494-77.658c0 0-39.732-106.554 54.18-178.794 74.046-55.986 144.48-25.284 144.48-25.284l-102.942 102.942 92.106 102.942 122.808-110.166c0 0 21.672 130.032-65.016 182.406-84.882 54.18-157.122 25.284-157.122 25.284l-77.658 79.464"></path>
<path fill="none" stroke="#000" stroke-width="36.1199" stroke-miterlimit="10" stroke-linecap="round" stroke-linejoin="round" d="M778.384 288.959c0 147.619-119.669 267.287-267.287 267.287s-267.287-119.669-267.287-267.287c0-147.619 119.669-267.287 267.287-267.287s267.287 119.669 267.287 267.287z"></path>
<path fill="none" stroke="#000" stroke-width="36.1199" stroke-miterlimit="10" stroke-linecap="round" stroke-linejoin="round" d="M511.097 561.665v251.034"></path>
<path fill="none" stroke="#000" stroke-width="36.1199" stroke-miterlimit="10" stroke-linecap="round" stroke-linejoin="round" d="M390.095 648.353h-131.838l-220.332 339.527h948.148l-220.332-339.527h-131.838"></path>
</svg>
