<!-- Generated by IcoMoon.io -->
<svg version="1.1" xmlns="http://www.w3.org/2000/svg" width="1024" height="1024" viewBox="0 0 1024 1024">
<title></title>
<g id="icomoon-ignore">
</g>
<path fill="none" stroke="#000" stroke-width="36.1199" stroke-miterlimit="10" stroke-linecap="round" stroke-linejoin="miter" d="M893.968 660.995h66.822c27.090 0 50.568-21.672 50.568-50.568v-545.411c0-27.090-21.672-50.568-50.568-50.568h-897.58c-27.090 0-50.568 21.672-50.568 50.568v547.217c0 27.090 21.672 50.568 50.568 50.568h66.822"></path>
<path fill="none" stroke="#000" stroke-width="36.1199" stroke-miterlimit="10" stroke-linecap="round" stroke-linejoin="miter" d="M252.84 440.663c0-142.674 115.584-258.257 258.257-258.257s258.257 115.584 258.257 258.257M810.892 912.028c0 55.986-46.956 102.942-102.942 102.942h-391.901c-55.986 0-102.942-46.956-102.942-102.942v-393.707c0-7.224 5.418-12.642 12.642-12.642h572.501c7.224 0 12.642 5.418 12.642 12.642v393.707z"></path>
<path fill="none" stroke="#000" stroke-width="36.1199" stroke-miterlimit="10" stroke-linecap="round" stroke-linejoin="miter" d="M509.291 594.173c-52.374 0-93.912 41.538-93.912 93.912 0 23.478 9.030 46.956 25.284 65.016v128.226c0 25.284 21.672 46.956 46.956 46.956h43.344c25.284 0 46.956-21.672 46.956-46.956v-128.226c16.254-18.060 25.284-39.732 25.284-65.016 0-52.374-43.344-93.912-93.912-93.912z"></path>
</svg>
