<!-- Generated by IcoMoon.io -->
<svg version="1.1" xmlns="http://www.w3.org/2000/svg" width="1024" height="1024" viewBox="0 0 1024 1024">
<title></title>
<g id="icomoon-ignore">
</g>
<path fill="none" stroke="#000" stroke-width="36.1199" stroke-miterlimit="10" stroke-linecap="butt" stroke-linejoin="miter" d="M968.014 413.573l-46.956-10.836c-9.030-36.12-23.478-70.434-43.344-102.942l25.284-41.538c7.224-14.448 12.642-32.508 0-46.956l-92.106-92.106c-5.418-5.418-12.642-7.224-19.866-7.224-9.030 0-18.060 3.612-25.284 7.224l-41.538 25.284c-32.508-18.060-65.016-32.508-101.136-41.538l-12.642-46.956c-5.418-16.254-14.448-32.508-32.508-32.508h-130.032c-18.060 0-28.896 16.254-32.508 32.508l-12.642 46.956c-36.12 9.030-70.434 23.478-101.136 41.538l-41.538-25.284c-7.224-5.418-16.254-7.224-25.284-7.224-7.224 0-14.448 1.806-19.866 7.224l-92.106 92.106c-12.642 12.642-7.224 30.702 0 46.956l21.672 41.538c-18.060 32.508-32.508 66.822-43.344 102.942l-46.956 12.642c-16.254 3.612-32.508 14.448-32.508 32.508v130.032c0 18.060 16.254 27.090 32.508 32.508l46.956 12.642c9.030 36.12 23.478 70.434 43.344 102.942l-25.284 41.538c-9.030 14.448-12.642 32.508 0 46.956l92.106 92.106c5.418 5.418 12.642 7.224 19.866 7.224 9.030 0 18.060-3.612 27.090-7.224l41.538-25.284c32.508 18.060 65.016 32.508 101.136 41.538l12.642 46.956c3.612 16.254 14.448 32.508 32.508 32.508h131.838c18.060 0 27.090-16.254 32.508-32.508l12.642-46.956c36.12-9.030 70.434-23.478 101.136-41.538l41.538 25.284c9.030 3.612 18.060 7.224 27.090 7.224 7.224 0 14.448-1.806 19.866-7.224l92.106-92.106c12.642-12.642 9.030-32.508 0-46.956l-25.284-41.538c18.060-32.508 32.508-66.822 43.344-102.942l46.956-12.642c16.254-5.418 32.508-14.448 32.508-32.508v-130.032c-1.806-19.866-18.060-28.896-34.314-34.314z"></path>
<path fill="none" stroke="#000" stroke-width="36.1199" stroke-miterlimit="10" stroke-linecap="butt" stroke-linejoin="miter" d="M496.649 225.75c-158.928 0-285.347 128.226-285.347 285.347s128.226 285.347 285.347 285.347v-570.695z"></path>
<path fill="none" stroke="#000" stroke-width="36.1199" stroke-miterlimit="10" stroke-linecap="butt" stroke-linejoin="miter" d="M559.859 225.75c140.868 0 254.646 113.778 254.646 254.646h-254.646v-254.646z"></path>
<path fill="none" stroke="#000" stroke-width="36.1199" stroke-miterlimit="10" stroke-linecap="butt" stroke-linejoin="miter" d="M814.504 543.605h-254.646v254.646c139.062 0 254.646-113.778 254.646-254.646z"></path>
</svg>
