<!-- Generated by IcoMoon.io -->
<svg version="1.1" xmlns="http://www.w3.org/2000/svg" width="1024" height="1024" viewBox="0 0 1024 1024">
<title></title>
<g id="icomoon-ignore">
</g>
<path fill="none" stroke="#000" stroke-width="36.1199" stroke-miterlimit="10" stroke-linecap="round" stroke-linejoin="round" d="M164.346 404.543l101.136-200.466"></path>
<path fill="none" stroke="#000" stroke-width="36.1199" stroke-miterlimit="10" stroke-linecap="round" stroke-linejoin="round" d="M319.661 204.078l240.198 225.75"></path>
<path fill="none" stroke="#000" stroke-width="36.1199" stroke-miterlimit="10" stroke-linecap="round" stroke-linejoin="round" d="M186.876 457.428c5.809 26.298-10.8 52.325-37.098 58.134s-52.325-10.8-58.134-37.098c-5.809-26.298 10.8-52.325 37.098-58.134s52.325 10.8 58.134 37.098z"></path>
<path fill="none" stroke="#000" stroke-width="36.1199" stroke-miterlimit="10" stroke-linecap="round" stroke-linejoin="round" d="M334.989 152.195c5.809 26.298-10.8 52.325-37.098 58.134s-52.325-10.8-58.134-37.098c-5.809-26.298 10.8-52.325 37.098-58.134s52.325 10.8 58.134 37.098z"></path>
<path fill="none" stroke="#000" stroke-width="36.1199" stroke-miterlimit="10" stroke-linecap="round" stroke-linejoin="round" d="M650.159 433.439l213.108-229.362"></path>
<path fill="none" stroke="#000" stroke-width="36.1199" stroke-miterlimit="10" stroke-linecap="round" stroke-linejoin="round" d="M657.383 467.753c0 26.93-21.831 48.762-48.762 48.762s-48.762-21.831-48.762-48.762c0-26.93 21.831-48.762 48.762-48.762s48.762 21.831 48.762 48.762z"></path>
<path fill="none" stroke="#000" stroke-width="36.1199" stroke-miterlimit="10" stroke-linecap="round" stroke-linejoin="round" d="M953.566 162.54c0 26.93-21.831 48.762-48.762 48.762s-48.762-21.831-48.762-48.762c0-26.93 21.831-48.762 48.762-48.762s48.762 21.831 48.762 48.762z"></path>
<path fill="none" stroke="#000" stroke-width="36.1199" stroke-miterlimit="10" stroke-linecap="round" stroke-linejoin="round" d="M131.838 651.965v263.675"></path>
<path fill="none" stroke="#000" stroke-width="36.1199" stroke-miterlimit="10" stroke-linecap="round" stroke-linejoin="round" d="M606.815 651.965v263.675"></path>
<path fill="none" stroke="#000" stroke-width="36.1199" stroke-miterlimit="10" stroke-linecap="round" stroke-linejoin="round" d="M765.743 507.485v408.155"></path>
<path fill="none" stroke="#000" stroke-width="36.1199" stroke-miterlimit="10" stroke-linecap="round" stroke-linejoin="round" d="M449.693 507.485v408.155"></path>
<path fill="none" stroke="#000" stroke-width="36.1199" stroke-miterlimit="10" stroke-linecap="round" stroke-linejoin="round" d="M290.765 370.229v545.411"></path>
<path fill="none" stroke="#000" stroke-width="36.1199" stroke-miterlimit="10" stroke-linecap="round" stroke-linejoin="round" d="M924.67 370.229v545.411"></path>
</svg>
