<!-- Generated by IcoMoon.io -->
<svg version="1.1" xmlns="http://www.w3.org/2000/svg" width="1024" height="1024" viewBox="0 0 1024 1024">
<title></title>
<g id="icomoon-ignore">
</g>
<path fill="none" stroke="#000" stroke-width="36.1199" stroke-miterlimit="10" stroke-linecap="round" stroke-linejoin="miter" d="M328.691 810.892h-247.422c-28.896 0-52.374-23.478-52.374-52.374v-675.443c0-28.896 23.478-52.374 52.374-52.374h861.46c28.896 0 52.374 23.478 52.374 52.374v675.443c0 28.896-23.478 52.374-52.374 52.374h-242.004"></path>
<path fill="none" stroke="#000" stroke-width="36.1199" stroke-miterlimit="10" stroke-linecap="square" stroke-linejoin="round" d="M511.097 993.298h-258.257l130.032-88.494 128.226-90.3 130.032 90.3 130.032 88.494z"></path>
<path fill="none" stroke="#000" stroke-width="36.1199" stroke-miterlimit="10" stroke-linecap="round" stroke-linejoin="miter" d="M173.376 478.589h101.136v173.376h-101.136v-173.376z"></path>
<path fill="none" stroke="#000" stroke-width="36.1199" stroke-miterlimit="10" stroke-linecap="round" stroke-linejoin="miter" d="M368.423 357.587h101.136v294.377h-101.136v-294.377z"></path>
<path fill="none" stroke="#000" stroke-width="36.1199" stroke-miterlimit="10" stroke-linecap="round" stroke-linejoin="miter" d="M561.665 428.021h101.136v223.944h-101.136v-223.944z"></path>
<path fill="none" stroke="#000" stroke-width="36.1199" stroke-miterlimit="10" stroke-linecap="round" stroke-linejoin="miter" d="M754.907 323.273h101.136v328.691h-101.136v-328.691z"></path>
<path fill="none" stroke="#000" stroke-width="36.1199" stroke-miterlimit="10" stroke-linecap="round" stroke-linejoin="miter" d="M180.6 353.975l243.81-144.48 209.496 93.912 223.944-160.734"></path>
</svg>
