<!-- Generated by IcoMoon.io -->
<svg version="1.1" xmlns="http://www.w3.org/2000/svg" width="1024" height="1024" viewBox="0 0 1024 1024">
<title></title>
<g id="icomoon-ignore">
</g>
<path fill="none" stroke="#000" stroke-width="36.1199" stroke-miterlimit="10" stroke-linecap="round" stroke-linejoin="round" d="M155.316 435.245h-137.256v-276.317c0-75.852 61.404-139.062 139.062-139.062h707.951c75.852 0 139.062 61.404 139.062 139.062v276.317h-140.868"></path>
<path fill="none" stroke="#000" stroke-width="36.1199" stroke-miterlimit="10" stroke-linecap="round" stroke-linejoin="round" d="M1004.134 686.279v180.6c0 81.27-65.016 146.286-146.286 146.286h-693.503c-81.27 0-146.286-66.822-146.286-146.286v-180.6c0-9.030 7.224-16.254 16.254-16.254h951.76c10.836 0 18.060 7.224 18.060 16.254z"></path>
<path fill="none" stroke="#000" stroke-width="36.1199" stroke-miterlimit="10" stroke-linecap="round" stroke-linejoin="round" d="M944.536 666.413l-240.198-222.138c0 0 55.986-148.092-77.658-251.034-102.942-79.464-204.078-36.12-204.078-36.12l144.48 144.48-130.032 144.48-173.376-155.316c0 0-30.702 182.406 90.3 258.257s220.332 36.12 220.332 36.12l79.464 81.27"></path>
</svg>
