<!-- Generated by IcoMoon.io -->
<svg version="1.1" xmlns="http://www.w3.org/2000/svg" width="1024" height="1024" viewBox="0 0 1024 1024">
<title></title>
<g id="icomoon-ignore">
</g>
<path fill="none" stroke="#000" stroke-width="36.1199" stroke-miterlimit="10" stroke-linecap="round" stroke-linejoin="round" d="M278.123 200.466h469.559"></path>
<path fill="none" stroke="#000" stroke-width="36.1199" stroke-miterlimit="10" stroke-linecap="round" stroke-linejoin="round" d="M278.123 415.379h305.213"></path>
<path fill="none" stroke="#000" stroke-width="36.1199" stroke-miterlimit="10" stroke-linecap="round" stroke-linejoin="round" d="M278.123 628.487h176.988"></path>
<path fill="none" stroke="#000" stroke-width="36.1199" stroke-miterlimit="10" stroke-linecap="round" stroke-linejoin="round" d="M278.123 841.594h90.3"></path>
<path fill="none" stroke="#000" stroke-width="36.1199" stroke-miterlimit="10" stroke-linecap="round" stroke-linejoin="bevel" d="M386.483 1000.522h-260.063c-1.806 0-16.254-16.254-16.254-34.314v-915.64c0-19.866 16.254-34.314 34.314-34.314h720.593c19.866 0 34.314 16.254 34.314 34.314v260.063"></path>
<path fill="none" stroke="#000" stroke-width="34.2995" stroke-miterlimit="10" stroke-linecap="round" stroke-linejoin="round" d="M494.843 881.326c0 0 0 0 0 0 19.866 19.866 12.642 41.538 12.642 41.538s0 1.806 0 1.806c-5.418 16.254-1.806 34.314 9.030 48.762 0 0 1.806 1.806 1.806 1.806 16.254 9.030 25.284 12.642 41.538 18.060 0 0 1.806 0 1.806 0 18.060-1.806 32.508-10.836 41.538-25.284 0 0 0 0 1.806-1.806 0 0 10.836-19.866 37.926-18.060 0 0 0 0 0 0 7.224 0 14.448 1.806 21.672 1.806 0 0 0 0 0 0 5.418 0 10.836 1.806 14.448 3.612 14.448 7.224 19.866 19.866 19.866 19.866s0 1.806 0 1.806c7.224 16.254 21.672 27.090 37.926 30.702 0 0 1.806 0 1.806 0 14.448-3.612 28.896-7.224 43.344-12.642 0 0 1.806 0 1.806-1.806 12.642-12.642 18.060-28.896 14.448-46.956 0 0 0-1.806 0-1.806s-3.612-23.478 18.060-39.732c5.418-3.612 12.642-9.030 16.254-12.642 0 0 0 0 1.806 0 19.866-14.448 36.12-7.224 41.538-5.418h1.806c0 0 1.806 0 1.806 0 14.448 7.224 32.508 7.224 48.762 0 0 0 1.806 0 1.806-1.806 9.030-12.642 18.060-25.284 27.090-39.732 0 0 0-1.806 0-1.806 1.806-16.254-5.418-32.508-18.060-43.344 0 0 0-1.806-1.806-1.806 0 0-18.060-14.448-12.642-41.538 0 0 0 0 0-1.806 1.806-7.224 3.612-14.448 5.418-19.866 0 0 0 0 0-1.806 7.224-27.090 28.896-30.702 28.896-30.702s1.806 0 1.806 0c16.254-3.612 28.896-14.448 36.12-30.702 0 0 0-1.806 0-1.806 0-16.254-1.806-32.508-5.418-48.762 0 0 0-1.806-1.806-1.806-9.030-12.642-25.284-21.672-41.538-21.672 0 0-1.806 0-1.806 0s-7.224 0-14.448-3.612c-9.030-3.612-16.254-10.836-21.672-19.866 0 0 0 0 0 0-1.806-5.418-5.418-12.642-9.030-18.060 0 0 0-1.806 0-1.806-10.836-25.284 1.806-41.538 1.806-43.344 0 0 0-1.806 0-1.806 9.030-12.642 12.642-28.896 9.030-45.15 0 0 0-1.806-1.806-1.806-10.836-12.642-23.478-25.284-36.12-36.12 0 0-1.806 0-1.806-1.806"></path>
<path fill="none" stroke="#000" stroke-width="34.2995" stroke-miterlimit="10" stroke-linecap="round" stroke-linejoin="round" d="M572.501 771.16c61.404 41.538 144.48 23.478 186.018-37.926s23.478-144.48-37.926-186.018"></path>
</svg>
